{
    "asset" : {
        "generator" : "Khronos glTF Blender I/O v1.2.75",
        "version" : "2.0"
    },
    "scene" : 0,
    "scenes" : [
        {
            "extras" : {
                "glTF2ExportSettings" : {
                    "export_animations" : 1,
                    "export_cameras" : 0,
                    "export_colors" : 1,
                    "export_extras" : 1,
                    "export_force_sampling" : 0,
                    "export_format" : "GLTF_EMBEDDED",
                    "export_image_format" : "AUTO",
                    "export_lights" : 0,
                    "export_materials" : 1,
                    "export_morph" : 1,
                    "export_normals" : 1,
                    "export_skins" : 1,
                    "export_texcoords" : 1,
                    "export_yup" : 1
                }
            },
            "name" : "Scene",
            "nodes" : [
                0,
                1
            ]
        }
    ],
    "nodes" : [
        {
            "name" : "Node_0",
            "scale" : [
                110.75155639648438,
                110.75155639648438,
                110.75155639648438
            ],
            "translation" : [
                2.3536911010742188,
                82.06112670898438,
                -4.227325439453125
            ]
        },
        {
            "extras" : {
                "sparkar_optimization" : {
                    "InvertedReducePercentage" : 0
                },
                "spark_blender_addon" : 1
            },
            "mesh" : 0,
            "name" : "backpack-50w.001",
            "scale" : [
                0.00473544467240572,
                0.00473544467240572,
                0.00473544467240572
            ],
            "translation" : [
                0.033234044909477234,
                0.7404975891113281,
                -0.13379812240600586
            ]
        }
    ],
    "materials" : [
        {
            "doubleSided" : true,
            "emissiveFactor" : [
                0,
                0,
                0
            ],
            "name" : "_texture.002",
            "pbrMetallicRoughness" : {
                "baseColorTexture" : {
                    "index" : 0,
                    "texCoord" : 0
                },
                "metallicFactor" : 0,
                "roughnessFactor" : 1
            }
        }
    ],
    "meshes" : [
        {
            "name" : "backpack-50w.001",
            "primitives" : [
                {
                    "attributes" : {
                        "POSITION" : 0,
                        "NORMAL" : 1,
                        "TEXCOORD_0" : 2
                    },
                    "indices" : 3,
                    "material" : 0
                }
            ]
        }
    ],
    "textures" : [
        {
            "source" : 0
        }
    ],
    "images" : [
        {
            "bufferView" : 4,
            "mimeType" : "image/jpeg",
            "name" : "_texture.001_Base_Color2"
        }
    ],
    "accessors" : [
        {
            "bufferView" : 0,
            "componentType" : 5126,
            "count" : 22386,
            "max" : [
                153.6023406982422,
                250.7957305908203,
                128.41676330566406
            ],
            "min" : [
                -157.6978759765625,
                -216.9599609375,
                -89.76155853271484
            ],
            "type" : "VEC3"
        },
        {
            "bufferView" : 1,
            "componentType" : 5126,
            "count" : 22386,
            "type" : "VEC3"
        },
        {
            "bufferView" : 2,
            "componentType" : 5126,
            "count" : 22386,
            "type" : "VEC2"
        },
        {
            "bufferView" : 3,
            "componentType" : 5123,
            "count" : 22386,
            "type" : "SCALAR"
        }
    ],
    "bufferViews" : [
        {
            "buffer" : 0,
            "byteLength" : 268632,
            "byteOffset" : 0
        },
        {
            "buffer" : 0,
            "byteLength" : 268632,
            "byteOffset" : 268632
        },
        {
            "buffer" : 0,
            "byteLength" : 179088,
            "byteOffset" : 537264
        },
        {
            "buffer" : 0,
            "byteLength" : 44772,
            "byteOffset" : 716352
        },
        {
            "buffer" : 0,
            "byteLength" : 293518,
            "byteOffset" : 761124
        }
    ],
    "buffers" : [
        {
            "byteLength" : 1054644,
            "uri" : "data:application/octet-stream;base64,"
        }
    ]
}
